<?xml version="1.0" encoding="utf-8"?>
<!-- Generator: Adobe Illustrator 16.0.0, SVG Export Plug-In . SVG Version: 6.00 Build 0)  -->
<!DOCTYPE svg PUBLIC "-//W3C//DTD SVG 1.1//EN" "http://www.w3.org/Graphics/SVG/1.1/DTD/svg11.dtd">
<svg version="1.1" id="Layer_1" xmlns="http://www.w3.org/2000/svg" xmlns:xlink="http://www.w3.org/1999/xlink" x="0px" y="0px"
	 width="515.203px" height="131.271px" viewBox="0 0 515.203 131.271" enable-background="new 0 0 515.203 131.271"
	 xml:space="preserve">
<g>
	<g>
		<path fill="#A50034" d="M380.569,65.594c0,36.13-29.285,65.424-65.416,65.424s-65.417-29.294-65.417-65.424
			c0-36.131,29.286-65.416,65.417-65.416S380.569,29.463,380.569,65.594z"/>
		<path d="M513.845,109.702c-2.832-4.483-8.229-4.72-12.837-6.076c-3.757-1.104-7.359-2.679-11.164-3.625
			c-4.857-1.208-6.532-3.396-3.777-8.312c1.732-3.088,5.524-19.989,5.524-24.456c0-5.827-7.104-8.706-11.266-5.319
			c-4.255,3.467-9.602,5.128-13.782,8.552c-4.145,3.391,2.395,7.604,6.058,6.53c3.514-1.034,8.227-5.161,7.696,1.665
			c-0.287,3.669-3.137,11.007-7.593,11.102c-3.139,0.068-4.606-2.992-6.124-5.214c-1.75-2.555-3.766-4.813-5.72-7.212
			c-2.065-2.51-3.824-5.248-5.464-8.046c-3.44-5.869,0-16.193,0-16.193c1.22,2.934,6.191,6.045,9.255,6.441
			c3.116,0.4,8.119-1.436,10.535-3.428c2.347-1.937,2.521-5.865,2.28-8.875c-0.364-4.479,2.745-21.371,3.107-25.522
			c0.341-4.136-5.855-9.992-9.657-10.661c-3.939-0.73-8.165,3.764-10.813,6.076c-3.42,2.997-8.199,5.757-6.196,11.16
			c1.5,4.032,5.595,3.591,7.697,0.334c1.489-2.32,4.359-6.056,6.661-2.825c1.273,1.79,0.443,5.291,0.237,7.3
			c-0.339,3.445-2.078,10.01-7.904,13.444c-5.894,3.445-5.894-4.823-7.947-10.341c-2.068-5.502-5.165-2.078-7.237,0
			c-4.398,4.41-8.617,9.131-13.758,12.709c-1.59,1.117-7.036,5.744-9.202,4.318c-2.017-1.327-1.275-7.459-0.903-9.428
			c0.789-4.152,5.072-6.67,7.284-10.145c3.137-4.947-1.938-6.895-5.867-6.97c-5.688-0.109-4.349-4.063-5.148-8.44
			c-0.376-2.07-2.262-4.705-4.231-5.523c-2.088-0.854-4.977,2.132-5.363,4.113c-0.756,3.841,1.94,12.246-2.314,14.695
			c-2.409,1.385-5.446,2.002-8.021,3.023c-1.124,0.445-2.339,0.914-3.561,1.021c-3.477,0.303-9.775-2.071-9.643,3.588
			c0.047,2.109,1.258,4.31,2.459,5.989c4.15,5.83,11.401,2.004,16.893,1.021c9.973-1.779,7.135,5.334,5.796,11.979
			c-1.939,9.604-12.872,16.969-20.833,21.508c-3.514,2.006-6.641,1.407-7.018,6.875c-0.342,4.835,6.225,7.928,10.701,7.577
			c3.725-0.293,6.19-5.383,8.214-7.987c1.512-1.95,4.26-7.992,7.078-8.063c3.937-0.097-0.896,30.546-0.89,32.972
			c0.011,3.39,1.82,8.173,5.487,8.879c9.686,1.871,7.782-10.131,7.064-15.911c-1.32-10.636-1.24-21.125-0.107-31.801
			c0.327-3.044,0.224-6.51,2.255-9.039c3.537-4.409,8.123-7.689,12.228-11.516c16.666-15.552,14.024,17.063,12.328,25.981
			c-2.429,12.732-13.873,30.146-5.404,42.748c3.389,5.044,8.746,6.605,11.491,0.358c1.915-4.35-0.29-11.619-0.759-16.229
			c0.495,4.854,4.236,8.305,9.204,7.881c5.514-0.471,9.709-4.803,15.198-5.166c2.061-0.139,4.221,0.706,6.121,1.396
			c8.815,3.213,16.871,9.051,26.582,9.237c5.171,0.102,8.267-2.731,5.226-7.896C513.953,109.874,513.897,109.786,513.845,109.702z
			 M463.435,101.136c-2.028,2.688-7.971,5.887-10.425,2.867c-1.798-2.218-1.72-5.183-1.426-7.864
			c0.319-2.969,0.286-18.302,6.64-13.531c2.875,2.154,3.931,6.492,5.37,9.614C465.067,95.404,465.212,98.781,463.435,101.136z"/>
		<path fill="#FFFFFF" d="M344.497,15.583c-3.677-3.425-5.956-7.445-11.165-8.37c-3.972-0.702-12.647,2.319-16.354,3.965
			c-2.916,1.293-8.25,5.099-7.02,9.094c2.156,7.029,17.489-7.512,22.778-4.996c3.175,1.518,3.156,6.162,2.641,9.027
			c-1.013,5.663-3.204,11.672-6.837,16.192c-1.876,2.335-4.709,3.194-6.559,5.183c-1.739,1.877-1.297,4.299-3.953,5.534
			c-3.447,1.604-14.074,0.007-10.641-5.878c2.276-3.893,8.07-5.523,10.955-9.168c3.323-4.187,2.357-7.861-1.808-11.061
			c-3.927-3.029-6.699,1.656-9.834,3.285c-6.475,3.348-6.935-5.426-8.62-9.454c-1.065-2.558-3.896-6.792-7.227-6.167
			c-2.846,0.535-5,3.93-6.315,6.222c-3.324,5.763-4.635,14.548-2.883,21.027c1.371,5.05,4.039,8.788,4.471,13.941
			c0.658,7.808,3.839,9.702,10.96,10.004c3.547,0.151,13.869-1.159,13.631,4.596c-0.297,7.246-14.135,8.169-18.998,9.103
			c-9.017,1.734-18.891-0.1-26.672,5.849c-3.173,2.423-2.691,8.144-0.409,11.084c3.05,3.933,4.594,0.769,7.784-1.452
			c4.074-2.829,10.049-2.37,14.614-4.123c5.548-2.13,11.066-2.432,16.955-3.314c2.134-0.32,5.558-1.785,7.654-0.806
			c5.677,2.663,3.495,18.277,2.835,22.964c-0.576,4.086-2.469,8.11-1.37,12.28c1.089,4.169,4.753,9.031,8.978,4.767
			c3.657-3.695,4.748-11.135,4.906-16.152c0.236-7.322-1.195-14.65-0.744-21.967c0.108-1.715,0.331-3.864,1.735-5.07
			c0.98-0.82,2.368-1.173,3.479-1.798c3.821-2.133,17.173-1.245,19.72-5.033c1.616-2.402,0.678-5.732-1.788-7.147
			c-2.899-1.657-6.518-1.48-9.667-0.741c-2.019,0.47-11.943,5.748-13.54,3.568c-1.892-2.598-2.271-8.897,0.689-10.729
			c3.313-2.046,8.604,0.579,11.705-2.96c1.906-2.176,1.278-5.736,1.971-8.361c2.317-8.838,9.766-14.435,8.31-24.597
			C348.394,20.639,346.924,17.845,344.497,15.583z"/>
		<g>
			<path d="M187.502,73.171c-1.552-0.708-3.201-1.183-4.738-1.431c-2.171-0.366-4.268,0.594-6.175,1.511
				c-2.348,1.137-4.722,2.309-7.103,3.375c-4.626,2.063-6.724,1.795-10.38-1.65c-2.582-2.431-5.542-3.71-8.633-1.527
				c-3.56,2.509-3.835,6.756-4.255,10.764c-0.413,3.91-0.38,8.42,0.62,12.237c1.567,5.99,2.834,14.904,7.861,19.124
				c1.668,1.409,3.672,1.761,5.833,1.275c2.141-0.478,3.719-2.036,6.003-2.407c2.937-0.476,6.73-2.088,9.659-1.697
				c1.847,0.241,3.153,2.047,4.75,2.133c3.193,0.172,5.733-2.664,6.393-5.462c0.681-2.881,0.095-5.884-0.21-8.772
				c-0.309-2.935,0.413-3.606,2.051-6.026c2.897-4.271,6.62-10.577,4.276-15.948C192.357,76.159,190.064,74.344,187.502,73.171z
				 M175.152,93.252c-0.135,0.343-0.325,0.7-0.553,1.062c-1.702,2.706-5.699,5.622-8.625,3.416
				c-1.549-1.161-2.647-4.004-1.929-5.874c0.683-1.754,2.806-2.165,4.394-2.588c2.344-0.623,3.209-1.604,5.208-2.741
				C177.852,84.131,176.019,91.1,175.152,93.252z"/>
			<path d="M241.319,55.749c-3.856-1.955-8.4-3.215-10.353-3.548c-9.048-1.559-16.856-7.119-25.118-10.739
				c-6.219-2.727-11.686-6.524-16.799-10.954c-3.944-3.416-7.715-9.622-12.75-11.24c-1.546-0.495-3.065-0.404-4.597-1.029
				c-1.507-0.613-3.295-1.437-4.112-2.845c-0.819-1.414-1.525-2.31-3.33-2.231c-3.378,0.14-6.308,5.138-7.823,7.627
				c-2.087,3.426-4.65,6.303-6.438,9.848c-5.312,10.555-14.244,19.266-23.223,27.369c-3.939,3.563-9.75,5.043-12.663,9.823
				c-8.606,14.134,15.429,2.371,19.667-0.244c5.799-3.576,10.315-9.821,14.261-15.263c3.727-5.139,7.682-10.85,11.451-16.281
				c7.364-10.598,12.147-8.943,19.592-0.245c6.99,8.167,14.659,15.171,23.62,21.138c7.601,5.065,17.691,5.266,26.083,8.405
				c4.492,1.686,10.633,2.842,15.114,0.544C250.04,62.736,245.91,58.074,241.319,55.749z"/>
			<path d="M164.869,66.855c1.713-0.648,3.377-1.855,5.054-2.334c4.57-1.315,11.835,0.861,14.462-4.413
				c3.324-6.671-7.002-10.128-11.787-9.613c-2.741,0.292-5.161,1.76-7.78,2.486c-2.193,0.606-4.484,0.646-6.678,1.162
				c-2.049,0.481-4.321,1.13-5.907,2.593c-5.114,4.718,6.351,10.011,10.035,10.503C163.153,67.354,164.016,67.173,164.869,66.855z"
				/>
		</g>
		<g>
			<path d="M42.795,30.924c-0.211-0.506-0.414-1.02-0.592-1.545c-0.399-1.148-0.686-2.338-0.717-3.554
				c-0.053-2.343,0.702-2.937,2.024-4.655c1.485-1.916,2.308-5.105,1.979-7.521c-0.214-1.579-1.09-2.712-2.077-3.894
				c-0.772-0.922-0.916-2.613-1.795-3.359c-1.648-1.396-4.877-2.502-7-2.141c-0.98,0.174-2.092,0.109-3.014,0.488
				c-0.998,0.411-1.487,1.053-2.644,1.222c-2.901,0.442-5.594,2.229-8.287,3.386C13.706,12.31,1.292,17.679,5.706,27.645
				c1.854,4.183,7.49,3.579,11.224,3.558c1.762-0.014,3.833-0.453,5.126,0.949c1.658,1.801,1.9,5.354,1.757,7.65
				c-0.104,1.673-1.188,5.573-3.422,5.658c-1.467,0.06-2.392-2.305-2.868-3.35c-1.577-3.484-5.073-11.029-9.541-5.977
				c-1.879,2.116-3.045,4.72-4.562,7.091c-1.289,2.007-2.259,4.214-2.313,6.644c-0.119,5.012,0.604,10.619,1.26,15.602
				c0.496,3.793,1.39,7.27,2.415,10.912c1.049,3.728,3.821,7.667,7.652,8.749c3.924,1.11,6.754-1.001,7.896-4.972
				c0.556-1.926,0.065-4.302,0.918-6.052c0.833-1.707,2.115-3.131,3.493-4.419c1.376-1.284,4.287-4.356,6.327-3.75
				c2.798,0.835,0.595,4.025-0.286,5.494c-1.495,2.497-3.571,4.59-5.366,6.854c-2.748,3.462-5.912,6.574-8.824,9.891
				c-1.182,1.354-3.91,5.59-5.879,5.517c-3.438-0.128,2.558-6.032-1.122-7.785c-6.587-3.131-14.995,19.834-4.942,21.893
				c3.639,0.743,7.844-4.57,10.085-6.798c3.5-3.483,6.643-7.364,9.72-11.216c1.103-1.378,3.028-6.599,4.93-4.227
				c1.295,1.622,0.244,5.101,0.207,6.991c-0.035,2.109,0.086,4.349-0.189,6.428c-0.33,2.472-0.652,4.769-1.267,7.18
				c-0.791,3.102-1.296,7.139,0.053,10.124c1.058,2.326,2.037,5.768,4.213,7.3c2.461,1.732,6.76,2.688,9.194,0.551
				c3.635-3.18,1.749-9.075,1.447-13.29c-0.492-6.818-0.719-13.604-0.706-20.451c-0.008-8.299-1.028-16.654,1.499-24.671
				c1.324-4.191,2.01-8.072,2.032-12.418c0.013-2.79,0.904-5.544,0.884-8.31c-0.023-2.324-0.641-4.958-1.069-7.279
				C45.236,35.301,43.734,33.166,42.795,30.924z M25.687,62.957c-0.465,1.881-2.729,4.038-4.282,5.026
				c-3.187,2.033-2.827-1.543-2.349-3.944c0.33-1.688,0.131-7.418,2.776-7.553C23.644,56.395,26.084,61.369,25.687,62.957z
				 M36.597,45.921c-0.098,2.166-0.538,6.426-3.364,5.257c-2.304-0.953-6.391-4.739-3.276-7.108c0.904-0.681,2.091-1.043,3.1-1.555
				c0.7-0.349,1.675-0.978,2.485-0.599C36.74,42.481,36.642,44.851,36.597,45.921z M37.109,31.791
				c-1.056,3.077-2.387,1.932-4.708,1.202c-5.857-1.851,1.721-5.591,3.733-6.63C38.618,25.91,37.503,30.64,37.109,31.791z"/>
			<path d="M60.518,41.891c3.223,1.789,7.436,1.64,10.715,0.063c3.904-1.879,8.108-8.146,13.173-5.717
				c1.123,0.535,2.381,0.692,3.479,1.27c4.833,2.561,10.382-4.145,12.081-8.117c1.95-4.529-1.108-11.764-6.6-12.074
				c-3.102-0.5-6.738-2.521-9.318,0.094c-1.839,1.863-0.735,2.891-0.577,4.962c0.16,2.075-0.925,4.685-1.648,6.395
				c-0.571,1.356-2.972,6.06-4.965,4.583c-1.629-1.216,0.606-3.272,0.768-4.541c0.469-3.685-2.875-3.996-5.384-5.387
				c-2.617-1.453-3.856-5.449-6.912-5.808c-4.655-0.55-5.897,3.986-8.108,6.979c-2.351,3.183-4.416,7.215-2.392,11.3
				C56.068,38.389,58.075,40.533,60.518,41.891z"/>
			<path d="M91.059,66.41c-4.562,0.403-7.264-1.434-8.235-6.142c-0.804-3.913,2.672-5.419,5.879-6.169
				c3.114-0.734,8.455-1.623,8.904-5.639c0.52-4.636-6.883-8.818-10.77-9.298c-2.584-0.319-4.223,0.556-6.518,1.546
				c-6.66,2.904-14.292,4.907-20.236,9.241c-5.409,3.939-2.195,11.128,4.137,11.722c2.47,0.231,4.166-0.281,5.53,2.18
				c0.984,1.772,1.008,4.436,0.587,6.372c-0.836,3.866-5.181,5.229-8.397,6.772c-1.973,0.943-4.293,2.512-5.995,3.925
				c-1.916,1.598-3.044,3.114-1.813,5.494c2.254,4.339,7.577,4.304,11.483,6.076c4.471,2.031,1.992,7.463,0.34,10.98
				c-2.552,5.426-7.749,8.759-11.597,13.18c-1.589,1.833-6.056,3.798-6.622,6.028c-0.658,2.587,2.476,3.535,4.391,3.502
				c4.568-0.078,8.892-3.393,12.501-5.851c3.949-2.685,7.109-6.318,9.261-10.586c2.119-4.213,4.327-8.788,5.946-13.225
				c1.411-3.862,2.786-7.861,5.488-11.048c2.322-2.738,6.355-3.752,9.663-4.556C102.729,79.047,98.006,65.791,91.059,66.41z"/>
			<path d="M109.311,104.412c-2.136-4.691-4.442-6.533-8.002-9.999c-2.871-2.793-7.829-4.007-11.277-1.805
				c-3.52,2.247-3.557,5.271-0.744,8.221c4.204,4.401,6.923,8.517,7.358,14.635c0.167,2.282,1.895,6.394,4.033,7.498
				c4.36,2.265,8.424-0.8,10.085-4.603C112.807,113.689,111.315,108.801,109.311,104.412z"/>
		</g>
	</g>
</g>
</svg>
