<?xml version="1.0" encoding="utf-8"?>
<!-- Generator: Adobe Illustrator 16.0.0, SVG Export Plug-In . SVG Version: 6.00 Build 0)  -->
<!DOCTYPE svg PUBLIC "-//W3C//DTD SVG 1.1//EN" "http://www.w3.org/Graphics/SVG/1.1/DTD/svg11.dtd">
<svg version="1.1" id="Layer_1" xmlns="http://www.w3.org/2000/svg" xmlns:xlink="http://www.w3.org/1999/xlink" x="0px" y="0px"
	 width="131.238px" height="131.271px" viewBox="0 0 131.238 131.271" enable-background="new 0 0 131.238 131.271"
	 xml:space="preserve">
<path fill="#FFFFFF" d="M105.95,10.03c-4.021-3.735-6.515-8.118-12.211-9.128C89.392,0.135,79.904,3.43,75.847,5.225
	c-3.188,1.41-9.023,5.562-7.678,9.917c2.359,7.665,19.131-8.192,24.915-5.448c3.475,1.656,3.454,6.72,2.889,9.844
	c-1.105,6.175-3.503,12.729-7.478,17.657c-2.052,2.546-5.15,3.484-7.173,5.651c-1.903,2.048-1.419,4.689-4.324,6.036
	c-3.771,1.75-15.395,0.007-11.64-6.411c2.49-4.245,8.828-6.021,11.983-9.997c3.637-4.564,2.58-8.572-1.979-12.061
	c-4.293-3.304-7.328,1.805-10.756,3.583c-7.082,3.65-7.586-5.917-9.43-10.31c-1.166-2.79-4.261-7.407-7.905-6.725
	c-3.111,0.583-5.468,4.285-6.908,6.786c-3.635,6.284-5.069,15.864-3.154,22.929c1.5,5.507,4.418,9.583,4.891,15.202
	c0.72,8.515,4.2,10.58,11.989,10.909c3.88,0.165,15.17-1.265,14.909,5.013c-0.323,7.901-15.46,8.908-20.78,9.926
	c-9.863,1.892-20.665-0.108-29.176,6.379c-3.472,2.643-2.943,8.881-0.448,12.086c3.336,4.289,5.027,0.84,8.515-1.582
	c4.456-3.085,10.992-2.584,15.987-4.496c6.068-2.322,12.106-2.653,18.545-3.614c2.335-0.35,6.079-1.947,8.374-0.878
	c6.208,2.902,3.823,19.929,3.101,25.04c-0.631,4.455-2.701,8.844-1.499,13.392c1.191,4.546,5.199,9.848,9.821,5.198
	c4-4.03,5.192-12.143,5.366-17.614c0.26-7.984-1.308-15.975-0.814-23.954c0.118-1.87,0.362-4.214,1.898-5.528
	c1.072-0.895,2.59-1.279,3.806-1.962c4.181-2.325,18.785-1.357,21.57-5.487c1.769-2.62,0.742-6.251-1.954-7.794
	c-3.172-1.808-7.13-1.613-10.576-0.808c-2.206,0.512-13.063,6.268-14.81,3.891c-2.071-2.833-2.485-9.702,0.753-11.701
	c3.622-2.231,9.412,0.632,12.804-3.228c2.084-2.373,1.397-6.253,2.158-9.116c2.532-9.638,10.68-15.742,9.088-26.824
	C110.215,15.543,108.605,12.497,105.95,10.03z"/>
</svg>
