<?xml version="1.0" encoding="utf-8"?>
<!-- Generator: Adobe Illustrator 16.0.0, SVG Export Plug-In . SVG Version: 6.00 Build 0)  -->
<!DOCTYPE svg PUBLIC "-//W3C//DTD SVG 1.1//EN" "http://www.w3.org/Graphics/SVG/1.1/DTD/svg11.dtd">
<svg version="1.1" id="Layer_1" xmlns="http://www.w3.org/2000/svg" xmlns:xlink="http://www.w3.org/1999/xlink" x="0px" y="0px"
	 width="515.203px" height="131.271px" viewBox="0 0 515.203 131.271" enable-background="new 0 0 515.203 131.271"
	 xml:space="preserve">
<g>
	<g>
		<path fill="#FFFFFF" d="M513.845,109.702c-2.832-4.481-8.229-4.72-12.837-6.076c-3.758-1.104-7.359-2.679-11.164-3.625
			c-4.857-1.208-6.532-3.396-3.777-8.312c1.732-3.088,5.524-19.989,5.524-24.456c0-5.827-7.104-8.706-11.268-5.319
			c-4.255,3.467-9.602,5.128-13.782,8.552c-4.145,3.393,2.396,7.604,6.06,6.53c3.514-1.034,8.227-5.161,7.696,1.665
			c-0.287,3.669-3.139,11.007-7.595,11.104c-3.139,0.066-4.604-2.992-6.124-5.216c-1.75-2.555-3.766-4.813-5.72-7.212
			c-2.063-2.51-3.824-5.248-5.464-8.046c-3.44-5.869,0-16.191,0-16.191c1.22,2.934,6.191,6.045,9.255,6.439
			c3.116,0.4,8.119-1.436,10.535-3.428c2.347-1.938,2.521-5.865,2.28-8.875c-0.364-4.479,2.744-21.371,3.105-25.522
			c0.341-4.136-5.854-9.99-9.657-10.659c-3.938-0.73-8.165,3.764-10.813,6.074c-3.42,2.997-8.199,5.759-6.196,11.16
			c1.5,4.032,5.596,3.591,7.697,0.334c1.489-2.318,4.359-6.056,6.661-2.825c1.271,1.79,0.441,5.291,0.236,7.302
			c-0.34,3.443-2.077,10.01-7.903,13.442c-5.896,3.445-5.896-4.821-7.947-10.341c-2.068-5.502-5.165-2.078-7.237,0
			c-4.396,4.41-8.615,9.131-13.758,12.709c-1.59,1.117-7.036,5.744-9.202,4.318c-2.017-1.327-1.273-7.459-0.901-9.43
			c0.789-4.15,5.07-6.67,7.283-10.145c3.138-4.947-1.938-6.895-5.866-6.97c-5.688-0.109-4.351-4.063-5.148-8.44
			c-0.376-2.07-2.262-4.705-4.229-5.521c-2.09-0.854-4.979,2.132-5.363,4.111c-0.756,3.843,1.938,12.246-2.314,14.695
			c-2.407,1.385-5.444,2.002-8.021,3.023c-1.124,0.443-2.34,0.913-3.563,1.021c-3.477,0.303-9.773-2.071-9.643,3.588
			c0.047,2.109,1.258,4.312,2.459,5.989c4.148,5.83,11.401,2.004,16.893,1.021c9.975-1.777,7.137,5.334,5.797,11.979
			c-1.938,9.604-12.871,16.969-20.834,21.508c-3.514,2.006-6.641,1.407-7.018,6.875c-0.342,4.835,6.225,7.928,10.701,7.577
			c3.725-0.293,6.188-5.383,8.214-7.987c1.512-1.95,4.26-7.992,7.078-8.063c3.937-0.099-0.896,30.546-0.891,32.972
			c0.012,3.39,1.819,8.173,5.486,8.879c9.688,1.871,7.782-10.131,7.064-15.911c-1.32-10.636-1.24-21.125-0.107-31.801
			c0.327-3.044,0.225-6.51,2.255-9.039c3.537-4.409,8.123-7.688,12.229-11.516c16.666-15.553,14.022,17.063,12.328,25.979
			c-2.431,12.732-13.873,30.146-5.404,42.748c3.389,5.044,8.746,6.605,11.491,0.358c1.915-4.352-0.29-11.619-0.76-16.229
			c0.494,4.854,4.235,8.307,9.203,7.882c5.516-0.472,9.709-4.804,15.198-5.166c2.063-0.14,4.222,0.705,6.121,1.396
			c8.815,3.213,16.871,9.051,26.582,9.237c5.171,0.102,8.267-2.731,5.226-7.896C513.953,109.874,513.897,109.786,513.845,109.702z
			 M463.435,101.136c-2.028,2.688-7.971,5.887-10.425,2.865c-1.798-2.218-1.722-5.183-1.426-7.862
			c0.317-2.971,0.284-18.304,6.64-13.531c2.875,2.154,3.931,6.492,5.37,9.614C465.067,95.404,465.214,98.781,463.435,101.136z"/>
		<path fill="#FFFFFF" d="M315.153,0.431c-36.131,0-65.417,29.283-65.417,65.416c0,36.13,29.286,65.424,65.417,65.424
			s65.416-29.294,65.416-65.424C380.569,29.716,351.284,0.431,315.153,0.431z M351.183,75.146c-2.547,3.788-15.9,2.898-19.722,5.031
			c-1.11,0.625-2.5,0.979-3.479,1.8c-1.404,1.206-1.627,3.354-1.735,5.068c-0.451,7.318,0.98,14.646,0.744,21.967
			c-0.158,5.018-1.249,12.457-4.906,16.152c-4.225,4.263-7.889-0.598-8.978-4.767c-1.1-4.17,0.794-8.194,1.37-12.28
			c0.66-4.687,2.842-20.301-2.835-22.964c-2.096-0.979-5.521,0.487-7.654,0.806c-5.889,0.881-11.407,1.185-16.955,3.314
			c-4.563,1.753-10.54,1.294-14.614,4.123c-3.188,2.221-4.732,5.385-7.782,1.452c-2.282-2.94-2.766-8.661,0.407-11.084
			c7.781-5.95,17.655-4.116,26.674-5.851c4.861-0.934,18.699-1.856,18.997-9.103c0.237-5.755-10.085-4.446-13.632-4.598
			c-7.121-0.302-10.302-2.194-10.96-10.004c-0.432-5.151-3.1-8.89-4.471-13.939c-1.752-6.479-0.441-15.265,2.883-21.027
			c1.315-2.292,3.468-5.687,6.315-6.222c3.331-0.625,6.163,3.607,7.227,6.167c1.686,4.026,2.146,12.802,8.62,9.454
			c3.135-1.629,5.907-6.314,9.834-3.285c4.165,3.201,5.131,6.874,1.808,11.061c-2.885,3.646-8.679,5.275-10.953,9.168
			c-3.434,5.887,7.193,7.482,10.641,5.878c2.656-1.233,2.214-3.655,3.953-5.532c1.85-1.99,4.683-2.85,6.559-5.185
			c3.633-4.519,5.824-10.529,6.837-16.19c0.516-2.865,0.534-7.51-2.641-9.027c-5.289-2.516-20.622,12.025-22.778,4.996
			c-1.229-3.995,4.105-7.801,7.021-9.094c3.708-1.647,12.382-4.667,16.354-3.967c5.209,0.927,7.488,4.945,11.165,8.37
			c2.427,2.263,3.897,5.057,4.366,8.343c1.456,10.162-5.994,15.761-8.31,24.599c-0.694,2.625-0.066,6.184-1.973,8.359
			c-3.101,3.539-8.392,0.914-11.705,2.961c-2.959,1.831-2.581,8.131-0.688,10.729c1.597,2.18,11.52-3.097,13.54-3.568
			c3.147-0.737,6.768-0.916,9.667,0.741C351.861,69.414,352.799,72.744,351.183,75.146z"/>
		<g>
			<path fill="#FFFFFF" d="M187.502,73.171c-1.552-0.708-3.201-1.183-4.736-1.431c-2.173-0.366-4.27,0.594-6.177,1.511
				c-2.348,1.139-4.722,2.311-7.103,3.375c-4.626,2.063-6.724,1.795-10.38-1.648c-2.582-2.433-5.542-3.71-8.633-1.527
				c-3.562,2.509-3.835,6.756-4.257,10.764c-0.411,3.91-0.38,8.42,0.62,12.237c1.567,5.99,2.834,14.904,7.861,19.124
				c1.668,1.409,3.672,1.761,5.833,1.275c2.141-0.479,3.719-2.036,6.003-2.407c2.938-0.478,6.73-2.088,9.659-1.697
				c1.847,0.241,3.153,2.047,4.75,2.133c3.193,0.172,5.731-2.664,6.393-5.462c0.683-2.881,0.097-5.884-0.21-8.771
				c-0.309-2.937,0.413-3.606,2.053-6.026c2.896-4.271,6.618-10.577,4.274-15.948C192.357,76.159,190.064,74.344,187.502,73.171z
				 M175.152,93.252c-0.135,0.345-0.325,0.7-0.553,1.063c-1.702,2.706-5.699,5.622-8.625,3.416
				c-1.551-1.161-2.647-4.004-1.931-5.874c0.685-1.754,2.808-2.165,4.396-2.588c2.344-0.623,3.209-1.604,5.208-2.741
				C177.852,84.131,176.019,91.1,175.152,93.252z"/>
			<path fill="#FFFFFF" d="M241.319,55.749c-3.856-1.955-8.4-3.215-10.354-3.548c-9.048-1.559-16.854-7.119-25.116-10.739
				c-6.221-2.727-11.688-6.522-16.801-10.954c-3.942-3.416-7.715-9.62-12.75-11.238c-1.546-0.495-3.063-0.404-4.597-1.029
				c-1.507-0.613-3.295-1.437-4.112-2.845c-0.817-1.414-1.523-2.312-3.329-2.231c-3.379,0.142-6.309,5.14-7.822,7.627
				c-2.087,3.426-4.65,6.305-6.438,9.85c-5.312,10.555-14.244,19.266-23.223,27.367c-3.939,3.563-9.75,5.044-12.663,9.823
				c-8.606,14.134,15.429,2.371,19.667-0.244c5.799-3.574,10.315-9.819,14.261-15.263c3.729-5.139,7.684-10.85,11.451-16.281
				c7.364-10.598,12.147-8.941,19.592-0.245c6.99,8.167,14.659,15.173,23.62,21.14c7.603,5.063,17.691,5.266,26.083,8.403
				c4.492,1.688,10.633,2.844,15.114,0.545C250.04,62.736,245.91,58.074,241.319,55.749z"/>
			<path fill="#FFFFFF" d="M164.869,66.855c1.713-0.648,3.377-1.855,5.054-2.334c4.57-1.315,11.835,0.859,14.464-4.413
				c3.322-6.671-7.004-10.128-11.787-9.613c-2.741,0.292-5.161,1.76-7.78,2.486c-2.193,0.604-4.484,0.646-6.678,1.162
				c-2.051,0.479-4.321,1.13-5.907,2.593c-5.114,4.718,6.351,10.011,10.035,10.503C163.153,67.354,164.016,67.173,164.869,66.855z"
				/>
		</g>
		<g>
			<path fill="#FFFFFF" d="M42.795,30.924c-0.211-0.506-0.414-1.02-0.592-1.545c-0.397-1.146-0.686-2.338-0.717-3.554
				c-0.053-2.343,0.702-2.937,2.022-4.655c1.485-1.916,2.31-5.104,1.979-7.521c-0.214-1.579-1.09-2.712-2.077-3.896
				c-0.771-0.922-0.916-2.611-1.795-3.357c-1.646-1.396-4.877-2.502-7-2.143c-0.979,0.176-2.092,0.109-3.014,0.488
				c-0.998,0.411-1.487,1.053-2.646,1.222c-2.899,0.442-5.594,2.229-8.287,3.388C13.704,12.31,1.29,17.679,5.704,27.645
				c1.854,4.183,7.49,3.579,11.226,3.558c1.762-0.014,3.833-0.453,5.126,0.949c1.656,1.801,1.898,5.354,1.757,7.65
				c-0.104,1.673-1.188,5.571-3.422,5.656c-1.469,0.062-2.394-2.305-2.868-3.35c-1.577-3.484-5.073-11.029-9.541-5.979
				c-1.879,2.116-3.045,4.722-4.563,7.093c-1.289,2.007-2.259,4.214-2.313,6.644C0.988,54.88,1.711,60.487,2.367,65.47
				c0.496,3.793,1.39,7.27,2.415,10.91c1.049,3.729,3.821,7.667,7.652,8.749c3.924,1.11,6.754-1.001,7.896-4.972
				c0.558-1.926,0.065-4.302,0.918-6.052c0.833-1.707,2.115-3.131,3.493-4.419c1.376-1.284,4.287-4.356,6.327-3.75
				c2.798,0.835,0.595,4.023-0.286,5.494c-1.495,2.497-3.571,4.59-5.366,6.854c-2.748,3.462-5.912,6.574-8.824,9.893
				c-1.182,1.354-3.908,5.59-5.879,5.517c-3.438-0.128,2.56-6.032-1.122-7.785c-6.587-3.131-14.993,19.834-4.94,21.895
				c3.639,0.741,7.844-4.57,10.085-6.8c3.5-3.481,6.643-7.362,9.72-11.216c1.104-1.378,3.028-6.599,4.93-4.227
				c1.297,1.622,0.244,5.101,0.207,6.991c-0.033,2.107,0.087,4.349-0.188,6.428c-0.33,2.472-0.652,4.769-1.268,7.18
				c-0.79,3.104-1.297,7.139,0.054,10.124c1.058,2.326,2.037,5.77,4.213,7.3c2.461,1.732,6.76,2.688,9.194,0.553
				c3.635-3.182,1.749-9.075,1.445-13.29c-0.492-6.818-0.719-13.604-0.706-20.451c-0.008-8.299-1.026-16.654,1.499-24.671
				c1.324-4.191,2.012-8.072,2.032-12.418c0.013-2.79,0.904-5.544,0.884-8.312c-0.021-2.324-0.641-4.958-1.067-7.279
				C45.236,35.302,43.734,33.166,42.795,30.924z M25.687,62.957c-0.465,1.881-2.729,4.038-4.282,5.026
				c-3.188,2.033-2.827-1.543-2.349-3.944c0.33-1.688,0.131-7.418,2.774-7.553C23.644,56.395,26.084,61.369,25.687,62.957z
				 M36.597,45.921c-0.1,2.166-0.538,6.428-3.364,5.259c-2.304-0.953-6.393-4.739-3.276-7.108c0.904-0.681,2.091-1.043,3.102-1.555
				c0.698-0.351,1.675-0.979,2.483-0.601C36.74,42.481,36.642,44.851,36.597,45.921z M37.109,31.791
				c-1.056,3.077-2.387,1.934-4.708,1.202c-5.857-1.851,1.721-5.591,3.731-6.63C38.618,25.91,37.503,30.64,37.109,31.791z"/>
			<path fill="#FFFFFF" d="M60.518,41.891c3.223,1.789,7.436,1.64,10.715,0.063c3.904-1.879,8.106-8.146,13.173-5.717
				c1.123,0.535,2.381,0.692,3.479,1.27c4.831,2.563,10.382-4.145,12.079-8.115c1.95-4.529-1.106-11.766-6.6-12.074
				c-3.102-0.5-6.738-2.521-9.318,0.094c-1.839,1.863-0.733,2.893-0.575,4.962c0.158,2.075-0.927,4.687-1.648,6.396
				c-0.571,1.354-2.972,6.06-4.965,4.583c-1.629-1.217,0.604-3.272,0.768-4.541c0.471-3.687-2.875-3.996-5.384-5.389
				c-2.617-1.451-3.854-5.447-6.912-5.808c-4.655-0.55-5.896,3.986-8.106,6.979c-2.353,3.183-4.416,7.215-2.394,11.3
				C56.068,38.389,58.075,40.533,60.518,41.891z"/>
			<path fill="#FFFFFF" d="M91.059,66.41c-4.563,0.403-7.266-1.434-8.235-6.142c-0.804-3.913,2.672-5.419,5.879-6.169
				c3.114-0.734,8.455-1.623,8.904-5.641c0.52-4.636-6.883-8.816-10.771-9.298c-2.584-0.317-4.223,0.558-6.518,1.546
				c-6.66,2.904-14.292,4.907-20.236,9.241c-5.409,3.939-2.193,11.128,4.139,11.722c2.47,0.231,4.166-0.279,5.528,2.182
				c0.984,1.771,1.008,4.436,0.587,6.372c-0.836,3.864-5.181,5.229-8.396,6.771c-1.975,0.943-4.293,2.512-5.995,3.925
				c-1.916,1.6-3.044,3.114-1.813,5.494c2.256,4.339,7.577,4.306,11.483,6.076c4.471,2.031,1.992,7.463,0.34,10.98
				c-2.552,5.426-7.749,8.759-11.597,13.18c-1.589,1.833-6.058,3.798-6.622,6.028c-0.658,2.587,2.476,3.533,4.391,3.502
				c4.568-0.078,8.894-3.395,12.501-5.853c3.949-2.685,7.109-6.316,9.263-10.586c2.117-4.213,4.325-8.788,5.944-13.225
				c1.411-3.862,2.786-7.861,5.488-11.048c2.322-2.738,6.355-3.753,9.663-4.558C102.729,79.047,98.006,65.791,91.059,66.41z"/>
			<path fill="#FFFFFF" d="M109.311,104.412c-2.138-4.689-4.442-6.533-8.002-9.999c-2.871-2.793-7.829-4.007-11.277-1.805
				c-3.52,2.247-3.557,5.271-0.744,8.221c4.204,4.401,6.923,8.519,7.358,14.635c0.167,2.282,1.895,6.396,4.033,7.498
				c4.358,2.267,8.424-0.8,10.085-4.603C112.807,113.689,111.315,108.801,109.311,104.412z"/>
		</g>
	</g>
</g>
</svg>
